<?xml version="1.0" standalone="no"?>
<!DOCTYPE svg PUBLIC "-//W3C//DTD SVG 20010904//EN"
 "http://www.w3.org/TR/2001/REC-SVG-20010904/DTD/svg10.dtd">
<svg version="1.0" xmlns="http://www.w3.org/2000/svg"
 width="600.000000pt" height="600.000000pt" viewBox="0 0 600.000000 600.000000"
 preserveAspectRatio="xMidYMid meet">
<metadata>
Created by potrace 1.16, written by Peter Selinger 2001-2019
</metadata>
<g transform="translate(0.000000,600.000000) scale(0.100000,-0.100000)"
fill="#000000" stroke="none">
<path d="M3600 5130 c-36 -21 -90 -57 -121 -80 -64 -45 -99 -61 -214 -98 -70
-22 -103 -26 -255 -29 -96 -3 -236 0 -310 5 -118 9 -153 17 -274 57 -159 53
-182 63 -216 100 -36 38 -73 55 -122 55 -54 0 -94 -24 -144 -87 -102 -127
-198 -195 -351 -250 -79 -28 -68 -27 -354 -7 -124 9 -174 -8 -301 -103 -117
-87 -272 -238 -340 -330 -60 -81 -131 -253 -157 -380 -24 -114 -28 -296 -11
-442 6 -47 17 -145 25 -216 8 -72 23 -176 34 -230 11 -55 25 -171 30 -258 6
-87 13 -162 16 -167 3 -4 10 -62 15 -129 6 -67 20 -150 30 -184 72 -234 88
-505 46 -827 -21 -167 -31 -215 -70 -330 -132 -387 -137 -485 -31 -578 46 -41
153 -82 260 -101 33 -6 82 -15 110 -21 79 -16 275 -32 472 -37 153 -4 203 -2
310 16 231 37 333 43 703 45 246 2 386 6 430 15 48 9 276 13 880 16 485 2 845
8 890 14 189 26 230 30 305 31 44 0 125 7 180 15 55 9 139 20 188 25 99 11
149 29 190 68 69 66 87 146 87 396 0 158 -19 380 -34 405 -3 4 -13 46 -22 92
-12 62 -19 177 -24 429 -8 350 -20 542 -38 660 -18 106 -25 412 -11 446 14 34
27 329 35 779 6 287 8 323 25 354 27 50 24 98 -11 167 -83 166 -306 348 -482
393 -41 11 -132 27 -204 36 -71 9 -147 20 -169 25 -22 5 -132 23 -244 40 -130
20 -232 41 -285 60 -44 16 -100 34 -124 40 -28 7 -58 26 -90 58 -71 70 -92 82
-142 81 -34 0 -61 -9 -110 -39z m137 -329 c27 -16 80 -39 118 -51 39 -12 90
-30 115 -40 57 -23 162 -45 360 -75 85 -13 202 -31 260 -40 342 -54 325 -50
392 -91 34 -21 89 -64 122 -95 50 -49 58 -61 51 -81 -4 -13 -12 -189 -16 -393
-10 -422 -24 -725 -37 -805 -11 -61 0 -389 17 -510 22 -157 31 -344 31 -607 0
-277 1 -291 47 -513 31 -153 33 -185 31 -373 l-3 -191 -120 -17 c-66 -9 -187
-19 -270 -23 -82 -4 -181 -14 -220 -21 -38 -8 -104 -17 -146 -21 l-76 -7 -14
54 c-20 77 -20 939 0 1019 17 72 27 847 12 1000 -22 230 -64 428 -111 519 -30
58 -147 181 -229 239 -92 65 -190 20 -155 -72 3 -9 29 -32 57 -52 76 -55 166
-144 188 -185 33 -66 71 -257 90 -459 14 -147 6 -932 -11 -985 -27 -89 -24
-984 4 -1055 6 -13 -75 -15 -678 -17 -496 -2 -697 -6 -728 -15 -29 -8 -162
-12 -423 -13 -248 -1 -409 -6 -465 -15 -139 -20 -133 -31 -88 150 l38 155 -1
305 c0 323 -2 354 -44 685 -14 116 -31 257 -36 315 -5 58 -16 143 -24 190 -8
47 -20 132 -25 190 -6 58 -17 132 -25 165 -24 97 -30 318 -11 390 9 32 16 92
16 132 0 83 -18 113 -68 113 -58 0 -92 -53 -92 -142 0 -20 -7 -63 -15 -95 -25
-94 -15 -285 24 -473 5 -25 12 -90 16 -145 4 -55 12 -111 17 -125 6 -14 16
-88 23 -165 7 -77 25 -237 40 -355 42 -332 43 -355 44 -675 1 -324 -3 -357
-71 -582 l-21 -72 -42 -7 c-49 -7 -370 2 -525 14 -110 9 -278 38 -300 52 -10
6 2 55 58 222 65 198 72 227 97 413 33 239 42 463 25 590 -15 116 -55 316 -74
380 -9 28 -16 70 -16 95 0 25 -6 81 -14 125 -8 44 -17 139 -21 210 -4 72 -18
186 -32 255 -54 273 -79 687 -49 825 7 33 29 99 50 146 31 72 51 101 131 186
86 91 203 190 263 222 17 9 49 8 148 -5 143 -19 239 -11 360 30 136 46 298
140 382 220 41 39 43 40 75 27 112 -45 368 -121 443 -131 125 -18 561 -19 639
-2 170 38 307 91 400 156 28 19 53 35 57 35 4 1 29 -12 55 -28z"/>
</g>
</svg>
