<?xml version="1.0" standalone="no"?>
<!DOCTYPE svg PUBLIC "-//W3C//DTD SVG 20010904//EN"
 "http://www.w3.org/TR/2001/REC-SVG-20010904/DTD/svg10.dtd">
<svg version="1.0" xmlns="http://www.w3.org/2000/svg"
 width="600.000000pt" height="600.000000pt" viewBox="0 0 600.000000 600.000000"
 preserveAspectRatio="xMidYMid meet">
<metadata>
Created by potrace 1.16, written by Peter Selinger 2001-2019
</metadata>
<g transform="translate(0.000000,600.000000) scale(0.100000,-0.100000)"
fill="#000000" stroke="none">
<path d="M3910 5709 c-67 -16 -145 -22 -375 -29 -355 -11 -456 -27 -651 -105
-33 -13 -109 -33 -170 -44 -60 -11 -130 -24 -157 -30 -26 -6 -136 -22 -245
-36 -187 -24 -223 -25 -714 -25 -317 0 -527 4 -543 10 -14 5 -94 11 -178 12
l-153 3 -49 -30 c-144 -89 -154 -303 -19 -398 44 -31 44 -31 44 -91 0 -75 -23
-248 -45 -341 -69 -299 -91 -449 -107 -731 -15 -274 -15 -294 1 -544 9 -132
11 -260 6 -360 -4 -85 -11 -378 -15 -650 -7 -466 -8 -499 -29 -565 -27 -90
-27 -135 4 -292 14 -70 30 -184 36 -253 17 -210 57 -322 141 -394 86 -74 181
-90 368 -62 81 13 111 13 200 1 209 -27 279 -28 380 -8 71 13 129 17 230 15
136 -4 360 16 509 43 105 19 256 35 343 35 40 0 141 9 223 20 193 25 219 25
372 -5 207 -39 317 -47 548 -40 230 8 339 -2 550 -50 60 -13 175 -30 255 -36
212 -16 296 3 367 85 84 96 102 191 103 531 0 201 26 439 70 635 21 96 50 416
50 556 0 92 -7 197 -19 283 -11 75 -24 226 -30 336 -6 110 -22 279 -36 375
-27 183 -26 160 -55 1220 -10 388 -25 633 -40 692 -19 67 -45 110 -95 157 -94
86 -183 108 -505 121 -351 14 -470 12 -570 -11z m537 -486 l151 -6 7 -56 c4
-31 11 -204 15 -386 30 -1133 28 -1093 65 -1325 8 -52 22 -204 30 -337 8 -133
22 -287 30 -342 30 -204 18 -440 -44 -812 -45 -265 -61 -424 -61 -586 0 -90
-4 -143 -10 -143 -6 0 -61 11 -123 24 -244 53 -313 59 -652 61 -305 1 -326 2
-445 28 -69 14 -160 29 -202 33 l-77 7 -5 41 c-27 226 -33 264 -96 551 -16 77
-30 165 -30 195 0 170 29 571 65 881 18 149 21 718 5 849 -20 163 -57 242
-142 297 -37 25 -50 28 -129 28 -81 0 -90 -2 -130 -30 -24 -17 -57 -50 -74
-74 -30 -43 -30 -44 -26 -154 2 -62 4 -274 5 -472 1 -283 -3 -394 -17 -520
-20 -183 -32 -336 -47 -585 -17 -293 -21 -254 79 -739 17 -79 33 -181 37 -226
8 -96 14 -90 -106 -100 -41 -3 -145 -18 -230 -33 -132 -22 -188 -26 -375 -27
-170 -1 -241 -6 -311 -20 -87 -18 -97 -18 -235 -2 -79 10 -183 17 -231 17
l-86 0 -7 53 c-3 28 -13 87 -21 131 -24 135 -73 120 374 112 415 -7 390 -9
612 47 58 15 132 32 164 38 73 14 106 43 106 94 0 25 -8 44 -26 62 -24 24 -29
25 -92 18 -77 -8 -95 -11 -257 -55 l-120 -33 -380 7 c-209 4 -381 9 -382 10
-2 1 1 36 7 77 5 41 10 225 10 409 0 184 5 466 10 625 8 215 7 339 -2 480 -15
226 -15 267 0 540 12 232 24 312 82 574 21 97 44 228 50 291 6 63 14 134 16
157 l5 41 502 5 c471 4 514 6 692 30 105 14 222 33 261 41 40 8 103 20 140 26
106 17 191 40 283 77 122 48 222 63 435 63 196 0 369 13 456 34 62 16 253 19
477 9z"/>
<path d="M2493 4906 c-25 -22 -28 -31 -31 -101 -5 -95 15 -290 34 -326 19 -38
65 -55 105 -38 37 15 64 69 54 108 -4 14 -10 95 -14 180 -7 151 -7 154 -34
177 -36 31 -78 31 -114 0z"/>
<path d="M4343 4807 c-11 -7 -58 -46 -104 -87 -45 -41 -95 -80 -110 -87 -53
-22 -64 -85 -28 -163 36 -79 45 -208 26 -377 -28 -248 -39 -392 -33 -428 8
-43 65 -94 131 -119 28 -11 85 -39 127 -64 100 -57 155 -66 192 -29 28 28 34
73 16 108 -6 11 -32 30 -58 43 -52 25 -225 117 -230 120 -4 5 27 359 38 423
11 67 -1 252 -21 328 l-11 40 101 95 c87 83 101 101 101 129 0 64 -76 102
-137 68z"/>
<path d="M1315 4525 c-34 -33 -34 -83 1 -116 22 -20 41 -25 145 -35 66 -6 122
-14 126 -17 3 -4 6 -133 6 -287 1 -267 0 -281 -19 -307 -35 -48 -97 -88 -204
-133 -112 -47 -242 -127 -259 -159 -31 -57 9 -121 76 -121 27 0 54 10 92 36
30 20 100 56 157 80 168 70 262 144 306 239 23 49 23 57 23 385 0 335 0 335
-23 368 -45 63 -145 91 -325 92 -70 0 -81 -3 -102 -25z"/>
<path d="M3294 1900 c-54 -21 -70 -91 -31 -136 19 -22 35 -28 97 -35 41 -4
100 -17 130 -28 30 -11 65 -20 76 -21 12 0 66 -12 120 -26 193 -50 300 -50
609 -4 121 19 132 22 158 51 35 38 31 81 -10 118 -30 26 -39 26 -233 -5 -58
-9 -166 -17 -240 -18 -118 -1 -148 3 -235 27 -54 15 -109 27 -121 27 -13 0
-59 14 -104 30 -83 31 -170 39 -216 20z"/>
</g>
</svg>
