<?xml version="1.0" standalone="no"?>
<!DOCTYPE svg PUBLIC "-//W3C//DTD SVG 20010904//EN"
 "http://www.w3.org/TR/2001/REC-SVG-20010904/DTD/svg10.dtd">
<svg version="1.0" xmlns="http://www.w3.org/2000/svg"
 width="600.000000pt" height="600.000000pt" viewBox="0 0 600.000000 600.000000"
 preserveAspectRatio="xMidYMid meet">
<metadata>
Created by potrace 1.16, written by Peter Selinger 2001-2019
</metadata>
<g transform="translate(0.000000,600.000000) scale(0.100000,-0.100000)"
fill="#000000" stroke="none">
<path d="M2334 4186 c-17 -8 -44 -30 -58 -49 -15 -20 -49 -49 -74 -66 -26 -17
-83 -67 -127 -111 -78 -80 -86 -84 -310 -197 l-230 -115 -230 5 c-310 7 -478
31 -640 90 -127 47 -311 127 -351 154 -14 9 -57 58 -96 110 -84 112 -123 133
-193 101 -24 -11 -25 -14 -25 -105 0 -89 2 -97 31 -139 16 -24 54 -69 83 -98
l53 -55 -10 -56 c-8 -41 -7 -80 1 -139 14 -99 16 -355 2 -440 -5 -33 -14 -106
-20 -161 -17 -151 -37 -241 -76 -345 -57 -153 -64 -204 -64 -458 1 -184 3
-231 15 -246 9 -12 15 -42 15 -78 0 -69 16 -111 59 -161 55 -61 102 -77 263
-88 79 -5 211 -16 293 -24 141 -14 1029 -36 1430 -35 102 0 204 -6 255 -14 47
-8 123 -17 170 -21 121 -9 524 -43 660 -56 63 -6 223 -15 355 -20 132 -5 256
-11 275 -14 43 -5 331 -31 500 -44 69 -6 325 -13 570 -17 381 -5 458 -4 536
10 94 16 239 66 309 107 94 54 204 156 273 256 l22 31 0 539 0 538 -37 64
c-21 35 -72 98 -113 141 -93 96 -173 137 -351 179 -278 67 -504 90 -864 91
-178 0 -166 -4 -286 85 -35 26 -122 75 -194 110 -71 34 -139 72 -149 83 -12
14 -31 22 -50 22 -17 0 -72 18 -122 39 -49 22 -109 44 -132 50 -40 11 -42 14
-42 50 0 76 -68 96 -118 35 l-30 -36 -54 17 c-29 10 -90 34 -136 53 -77 32
-83 37 -78 58 4 13 9 44 13 69 5 39 2 49 -17 70 -48 52 -120 11 -120 -68 0
-13 -2 -26 -6 -29 -7 -8 -93 26 -212 83 l-102 50 26 48 c31 55 28 95 -11 113
-36 16 -73 2 -103 -42 -15 -22 -33 -39 -40 -40 -7 0 -60 28 -118 61 -114 67
-166 80 -220 55z m226 -335 c0 -18 -92 -165 -115 -183 -34 -27 -31 -73 7 -101
54 -40 111 1 183 131 l50 89 130 -64 c71 -34 135 -63 142 -63 6 0 14 -4 18
-10 6 -10 -50 -94 -107 -157 -59 -66 -45 -133 27 -133 39 0 79 38 162 153 31
43 62 76 67 73 6 -3 63 -26 126 -51 63 -26 117 -49 118 -50 10 -9 -15 -53 -74
-131 -35 -48 -64 -97 -64 -109 0 -35 37 -75 70 -75 25 0 39 13 99 94 38 52 79
112 90 135 12 22 25 42 29 45 16 10 262 -78 262 -94 0 -7 -78 -138 -122 -205
-39 -59 -43 -86 -18 -118 29 -37 71 -36 102 1 12 16 39 55 58 86 79 131 110
176 119 176 6 0 65 -26 133 -58 133 -63 294 -174 291 -201 -1 -9 -9 -41 -18
-71 -20 -70 -55 -309 -55 -378 l0 -52 -142 5 c-233 8 -549 15 -1148 26 -311 6
-679 14 -817 18 l-253 6 37 60 c39 64 133 275 163 365 28 82 104 283 145 384
21 49 44 125 52 170 8 44 23 108 33 141 11 33 24 92 31 130 7 44 19 76 31 87
17 15 22 14 88 -24 39 -22 70 -43 70 -47z m-499 -303 c-10 -35 -29 -85 -42
-113 -23 -52 -95 -241 -134 -355 -34 -97 -117 -280 -158 -347 -20 -32 -45 -81
-57 -107 l-20 -49 -78 6 c-42 4 -210 9 -372 12 -162 4 -320 11 -350 16 -64 12
-217 27 -382 37 -65 5 -119 10 -122 13 -4 4 28 253 53 412 14 87 14 352 0 416
-6 27 -9 63 -7 80 l3 31 51 -24 c28 -13 113 -45 190 -71 123 -42 159 -49 319
-67 228 -24 529 -34 609 -19 39 7 133 48 285 123 256 128 250 128 212 6z
m3126 -564 c166 -28 347 -74 408 -103 41 -18 74 -44 98 -73 42 -51 44 -58 20
-58 -9 0 -35 -11 -57 -24 -50 -29 -250 -109 -371 -148 -83 -27 -105 -30 -275
-34 -102 -2 -258 -6 -347 -8 l-163 -5 0 32 c0 73 44 316 69 381 l26 69 252 -7
c150 -4 288 -12 340 -22z m621 -581 l-3 -92 -57 -51 c-39 -35 -66 -70 -87
-114 -16 -35 -43 -74 -59 -88 -36 -30 -211 -105 -372 -159 l-115 -39 -520 0
c-293 0 -568 5 -630 11 -222 21 -313 29 -475 39 -91 6 -212 17 -270 26 -58 8
-211 19 -340 25 -129 5 -271 14 -315 20 -139 19 -431 29 -1090 38 -352 5 -703
14 -780 20 -77 6 -215 13 -308 17 l-167 6 0 87 c0 106 27 260 47 268 25 10
542 -29 564 -43 16 -10 413 -22 1114 -34 1115 -19 1623 -29 2020 -39 429 -12
1137 -1 1255 19 81 13 156 37 334 107 156 61 231 96 243 115 12 18 15 -29 11
-139z"/>
<path d="M814 3016 c-28 -28 -34 -42 -34 -76 0 -34 6 -48 34 -76 28 -28 42
-34 76 -34 34 0 48 6 76 34 28 28 34 42 34 76 0 34 -6 48 -34 76 -28 28 -42
34 -76 34 -34 0 -48 -6 -76 -34z"/>
<path d="M1224 2996 c-28 -28 -34 -42 -34 -76 0 -34 6 -48 34 -76 28 -28 42
-34 76 -34 34 0 48 6 76 34 28 28 34 42 34 76 0 34 -6 48 -34 76 -28 28 -42
34 -76 34 -34 0 -48 -6 -76 -34z"/>
</g>
</svg>
