<?xml version="1.0" standalone="no"?>
<!DOCTYPE svg PUBLIC "-//W3C//DTD SVG 20010904//EN"
 "http://www.w3.org/TR/2001/REC-SVG-20010904/DTD/svg10.dtd">
<svg version="1.0" xmlns="http://www.w3.org/2000/svg"
 width="600.000000pt" height="600.000000pt" viewBox="0 0 600.000000 600.000000"
 preserveAspectRatio="xMidYMid meet">
<metadata>
Created by potrace 1.16, written by Peter Selinger 2001-2019
</metadata>
<g transform="translate(0.000000,600.000000) scale(0.100000,-0.100000)"
fill="#000000" stroke="none">
<path d="M4700 5434 c-8 -2 -73 -11 -145 -20 -100 -12 -284 -18 -800 -24 -398
-5 -706 -13 -759 -19 -102 -14 -158 -39 -187 -84 -19 -30 -20 -43 -16 -193 4
-110 12 -187 25 -245 36 -149 45 -254 38 -440 -12 -329 -33 -607 -48 -626 -20
-25 -194 -112 -325 -163 -73 -28 -154 -66 -180 -84 -56 -38 -258 -130 -322
-146 -24 -6 -84 -30 -135 -52 -50 -22 -125 -52 -166 -65 -96 -32 -113 -41
-373 -192 -280 -162 -527 -344 -703 -516 -135 -134 -145 -169 -151 -531 -6
-311 4 -391 64 -529 105 -239 310 -496 457 -573 l51 -27 230 1 c222 0 235 1
375 33 80 18 177 37 215 42 83 12 272 61 370 96 39 14 94 31 123 39 29 8 70
23 91 34 21 10 87 37 146 60 60 22 113 44 119 49 71 57 746 317 913 351 32 7
115 36 185 65 109 46 138 54 215 59 243 18 460 69 568 134 141 85 206 136 305
239 119 122 170 194 217 304 42 96 59 183 74 370 18 219 0 353 -67 516 -19 45
-34 87 -34 94 0 7 -16 60 -36 118 l-37 106 9 320 c5 176 9 500 9 720 0 339 -3
410 -17 465 -9 36 -19 98 -22 138 -9 130 -66 182 -196 181 -36 -1 -72 -3 -80
-5z m51 -279 c4 -22 12 -74 19 -115 10 -58 11 -184 4 -565 -13 -803 -12 -912
10 -967 13 -33 24 -48 37 -48 27 0 59 -36 59 -66 0 -14 -8 -39 -17 -55 -17
-28 -16 -31 14 -106 53 -131 66 -207 60 -357 -11 -255 -19 -296 -70 -399 -92
-183 -330 -392 -508 -447 -43 -13 -83 -32 -96 -46 -24 -26 -58 -30 -97 -13
-18 9 -61 9 -163 1 -137 -10 -139 -11 -280 -71 -78 -34 -152 -61 -165 -61 -23
-1 -188 -54 -393 -128 -259 -94 -387 -145 -490 -198 -60 -31 -141 -67 -180
-81 -38 -14 -98 -38 -132 -54 -35 -16 -84 -34 -110 -40 -27 -7 -67 -20 -91
-30 -58 -25 -236 -76 -292 -84 -99 -13 -246 -50 -267 -65 -17 -14 -53 -17
-212 -19 -131 -1 -198 2 -213 10 -35 19 -118 101 -151 149 -17 25 -53 72 -79
104 -70 85 -101 151 -152 333 -61 211 -63 291 -11 447 36 112 64 167 130 256
46 63 63 79 86 80 9 0 23 8 30 17 18 21 239 197 341 271 155 113 435 259 585
307 48 16 114 40 147 55 69 31 229 77 392 114 220 49 302 88 438 206 111 97
117 112 127 310 4 85 13 227 19 315 23 342 23 397 6 552 -10 83 -24 175 -32
205 -8 29 -17 101 -21 159 l-6 106 213 6 c117 4 422 7 677 7 365 0 482 3 546
15 102 18 224 33 257 31 21 -1 26 -7 31 -41z"/>
<path d="M4187 5102 c-14 -16 -17 -44 -17 -186 0 -164 0 -167 25 -191 31 -32
59 -32 91 0 25 25 25 26 22 189 -3 145 -5 166 -22 185 -24 26 -77 28 -99 3z"/>
<path d="M4511 5084 c-19 -24 -21 -40 -21 -159 0 -119 2 -135 21 -159 13 -17
30 -26 49 -26 19 0 36 9 49 26 19 24 21 40 21 159 0 119 -2 135 -21 159 -13
17 -30 26 -49 26 -19 0 -36 -9 -49 -26z"/>
<path d="M3520 5053 c-20 -26 -21 -37 -18 -181 3 -148 4 -155 27 -173 13 -10
31 -19 41 -19 10 0 28 9 41 19 23 18 24 25 27 173 3 144 2 155 -18 181 -14 18
-31 27 -50 27 -19 0 -36 -9 -50 -27z"/>
<path d="M3251 5044 c-19 -24 -21 -40 -21 -144 0 -109 2 -118 23 -138 37 -35
79 -27 102 19 10 19 15 60 15 132 0 90 -3 108 -21 131 -13 17 -30 26 -49 26
-19 0 -36 -9 -49 -26z"/>
<path d="M3780 5013 c-21 -26 -22 -35 -16 -141 8 -138 21 -200 48 -229 27 -28
69 -30 93 -3 17 18 17 29 6 133 -6 62 -11 136 -11 164 0 93 -71 138 -120 76z"/>
<path d="M3735 4578 c-247 -4 -465 -11 -484 -14 -20 -3 -48 -19 -68 -39 -59
-59 -38 -147 45 -182 30 -12 122 -13 681 -3 724 13 711 12 744 83 21 44 21 50
0 94 -11 24 -30 42 -57 54 -47 21 -93 22 -861 7z"/>
<path d="M4627 3525 c-15 -8 -40 -29 -55 -47 -15 -18 -59 -67 -98 -108 -38
-41 -90 -109 -113 -150 -24 -41 -67 -115 -96 -165 -106 -178 -115 -200 -171
-384 -32 -103 -37 -139 -50 -319 -10 -143 -11 -209 -4 -222 24 -45 102 -34
121 17 5 15 16 111 24 213 11 155 18 202 45 290 38 124 71 198 132 300 24 41
68 116 96 165 54 94 192 257 252 297 47 32 53 76 14 107 -31 25 -58 26 -97 6z"/>
<path d="M1107 2542 c-10 -10 -17 -31 -17 -46 0 -29 7 -37 134 -150 42 -37 95
-94 118 -125 22 -31 55 -72 73 -91 41 -45 131 -177 174 -255 72 -132 111 -275
111 -406 0 -62 4 -81 21 -103 28 -36 70 -35 99 1 20 25 21 37 17 123 -7 164
-36 270 -120 435 -39 79 -140 228 -192 285 -22 25 -60 72 -83 106 -38 54 -193
200 -246 231 -31 18 -71 16 -89 -5z"/>
</g>
</svg>
