<?xml version="1.0" standalone="no"?>
<!DOCTYPE svg PUBLIC "-//W3C//DTD SVG 20010904//EN"
 "http://www.w3.org/TR/2001/REC-SVG-20010904/DTD/svg10.dtd">
<svg version="1.0" xmlns="http://www.w3.org/2000/svg"
 width="600.000000pt" height="600.000000pt" viewBox="0 0 600.000000 600.000000"
 preserveAspectRatio="xMidYMid meet">
<metadata>
Created by potrace 1.16, written by Peter Selinger 2001-2019
</metadata>
<g transform="translate(0.000000,600.000000) scale(0.100000,-0.100000)"
fill="#000000" stroke="none">
<path d="M3875 5485 c-56 -20 -110 -81 -129 -146 -9 -29 -16 -88 -16 -132 0
-73 -4 -87 -41 -166 -51 -106 -103 -180 -211 -297 -121 -133 -200 -202 -249
-219 -24 -9 -77 -36 -119 -60 -41 -24 -107 -58 -145 -76 l-70 -31 -195 4
c-174 4 -199 7 -236 26 -62 32 -178 162 -219 245 -65 135 -90 294 -61 403 34
129 16 234 -50 300 -81 82 -207 82 -289 0 -44 -45 -44 -44 -96 -266 -17 -74
-44 -169 -60 -210 -15 -41 -35 -102 -43 -135 -23 -90 -60 -194 -89 -250 -14
-27 -58 -117 -97 -200 -39 -82 -93 -184 -119 -225 -26 -41 -62 -98 -80 -127
-65 -105 -224 -231 -365 -290 -162 -67 -212 -162 -181 -343 31 -181 54 -289
83 -390 20 -68 38 -168 51 -281 12 -97 29 -205 39 -240 11 -35 24 -91 31 -124
7 -33 18 -89 26 -125 18 -85 19 -342 3 -855 -19 -591 -12 -783 32 -881 l19
-44 704 0 c453 0 723 4 758 11 34 6 280 10 674 10 341 0 663 4 715 10 159 16
297 94 355 200 l29 54 1 695 c0 675 1 698 23 810 12 63 22 145 22 181 0 37 5
91 10 120 6 30 17 100 25 156 8 56 32 157 54 225 22 68 42 138 46 156 4 18 26
74 50 125 23 51 55 130 71 177 26 76 29 98 29 210 0 137 -1 141 -75 250 -33
49 -59 90 -147 238 -55 91 -112 320 -133 535 -6 60 -20 157 -32 215 -16 88
-20 153 -22 367 -3 288 -4 295 -70 353 -58 50 -135 64 -211 37z m-106 -890 c6
-38 15 -117 21 -175 14 -150 37 -267 82 -409 46 -148 83 -224 188 -395 44 -71
80 -140 80 -152 0 -29 -36 -125 -84 -226 -21 -42 -48 -117 -61 -165 -13 -48
-37 -133 -54 -188 -16 -54 -35 -133 -41 -175 -6 -41 -17 -113 -25 -160 -8 -47
-16 -128 -19 -180 -3 -52 -15 -144 -26 -204 -19 -103 -20 -150 -20 -732 0
-485 -3 -625 -12 -630 -7 -5 -321 -9 -698 -10 -432 -2 -705 -7 -739 -13 -33
-7 -234 -11 -527 -11 l-473 0 5 313 c3 171 9 363 15 425 5 65 7 231 3 385 -6
292 -2 259 -84 617 -11 47 -27 150 -36 230 -10 91 -28 188 -49 260 -34 117
-55 216 -55 255 0 16 25 39 103 90 126 84 317 272 367 360 18 33 55 92 80 130
26 39 84 147 129 240 45 94 97 199 116 235 18 36 43 99 55 140 19 65 24 72 34
56 79 -133 204 -267 299 -320 78 -44 143 -55 367 -63 233 -8 263 0 515 134 50
26 112 57 140 67 39 16 79 49 188 160 77 77 151 155 165 174 31 40 35 34 51
-63z"/>
<path d="M3269 3905 c-19 -14 -65 -46 -104 -72 -63 -42 -137 -100 -262 -205
-24 -21 -50 -38 -58 -38 -8 0 -20 -8 -27 -18 -38 -54 -136 -156 -177 -183 -52
-34 -42 -34 -361 -9 -75 5 -215 7 -315 4 -231 -8 -310 -29 -375 -100 l-42 -46
6 -61 c3 -34 10 -97 14 -140 8 -90 29 -117 87 -117 63 0 70 55 7 62 -26 3 -27
7 -34 73 -4 39 -10 93 -14 121 -6 50 -5 52 30 79 73 55 135 66 411 67 155 1
280 -3 330 -11 53 -8 201 -12 442 -11 l362 1 16 -30 c10 -20 15 -58 15 -115 0
-107 -10 -136 -47 -136 -37 0 -56 -13 -51 -36 2 -14 13 -20 40 -22 54 -5 95
20 107 66 16 55 14 223 -3 263 -27 65 -36 68 -203 71 l-151 3 106 95 c58 52
137 124 176 160 39 36 91 78 116 93 100 62 121 164 43 205 -32 17 -46 15 -84
-13z m67 -80 c-4 -15 -25 -39 -53 -58 -26 -18 -74 -57 -108 -87 -351 -317
-357 -322 -418 -318 l-46 3 82 85 c45 47 99 96 119 109 21 12 41 28 45 34 14
21 155 132 243 191 47 31 94 63 105 71 25 19 40 5 31 -30z"/>
<path d="M2890 3011 c-20 -4 -41 -10 -47 -14 -15 -9 -93 -154 -93 -173 0 -27
45 -43 141 -50 l96 -7 33 30 c28 25 34 38 38 86 4 55 3 58 -36 97 -41 42 -57
45 -132 31z m92 -73 c24 -20 27 -41 12 -76 -14 -35 -32 -39 -127 -26 l-46 7
25 46 c15 25 28 49 31 54 7 12 88 8 105 -5z"/>
<path d="M1780 2983 c-49 -18 -100 -100 -100 -162 0 -65 37 -90 143 -98 63 -5
75 -3 99 16 54 43 61 141 12 180 -26 21 -54 18 -54 -4 0 -7 8 -27 17 -43 14
-25 15 -33 4 -61 -12 -28 -18 -31 -56 -31 -68 0 -105 17 -105 49 0 46 46 101
86 101 12 0 27 7 34 15 26 31 -28 57 -80 38z"/>
<path d="M2084 2961 c-52 -32 -74 -68 -74 -122 0 -39 4 -51 26 -68 31 -24 104
-37 147 -24 47 13 99 86 95 132 -2 28 -8 37 -25 39 -17 3 -24 -3 -28 -25 -17
-76 -51 -102 -113 -87 -50 12 -55 47 -12 89 29 28 32 28 66 16 31 -11 38 -11
50 1 20 20 8 45 -28 57 -44 16 -69 14 -104 -8z"/>
<path d="M2357 2949 c-42 -25 -62 -134 -32 -176 21 -30 73 -43 169 -43 75 0
79 1 112 34 42 42 46 91 11 124 -32 30 -57 29 -57 -2 0 -14 5 -28 10 -31 15
-9 12 -31 -6 -49 -11 -11 -35 -16 -79 -16 -85 0 -115 12 -115 45 0 52 15 65
79 65 66 0 94 18 71 45 -15 18 -134 21 -163 4z"/>
</g>
</svg>
