<?xml version="1.0" standalone="no"?>
<!DOCTYPE svg PUBLIC "-//W3C//DTD SVG 20010904//EN"
 "http://www.w3.org/TR/2001/REC-SVG-20010904/DTD/svg10.dtd">
<svg version="1.0" xmlns="http://www.w3.org/2000/svg"
 width="600.000000pt" height="600.000000pt" viewBox="0 0 600.000000 600.000000"
 preserveAspectRatio="xMidYMid meet">
<metadata>
Created by potrace 1.16, written by Peter Selinger 2001-2019
</metadata>
<g transform="translate(0.000000,600.000000) scale(0.100000,-0.100000)"
fill="#000000" stroke="none">
<path d="M3645 5171 c-85 -31 -111 -48 -177 -121 -134 -149 -325 -269 -528
-330 -41 -12 -98 -30 -127 -39 -40 -14 -67 -16 -121 -10 -88 9 -154 42 -237
117 -34 31 -84 70 -109 85 -30 19 -54 44 -68 70 -23 46 -112 138 -175 180
-126 86 -228 76 -445 -43 -73 -40 -140 -79 -149 -87 -10 -8 -39 -20 -66 -27
-27 -7 -76 -25 -109 -40 -59 -26 -133 -45 -453 -116 -169 -37 -220 -51 -346
-92 -86 -28 -108 -42 -155 -95 -71 -81 -82 -111 -93 -263 -7 -97 -6 -172 2
-267 10 -102 10 -145 0 -192 -12 -61 -9 -123 10 -271 6 -41 10 -145 11 -230 0
-119 5 -175 21 -240 11 -47 24 -111 29 -143 6 -31 18 -74 29 -95 28 -54 98
-130 140 -151 116 -59 295 -52 461 19 69 30 174 64 227 75 38 8 42 -4 19 -60
-8 -19 -26 -94 -41 -167 -14 -73 -32 -151 -40 -173 -8 -22 -33 -130 -56 -240
l-41 -200 -4 -394 c-4 -338 -2 -406 12 -475 27 -132 66 -187 174 -242 46 -24
68 -29 130 -29 69 0 82 4 172 48 53 26 107 47 120 47 21 0 191 37 413 90 104
25 207 28 544 15 l224 -8 168 34 167 33 164 -32 c90 -17 294 -59 453 -92 l290
-61 150 3 c167 4 198 13 262 80 79 82 116 257 94 445 -6 54 -16 166 -21 248
-5 83 -15 173 -21 200 -6 28 -8 80 -5 120 4 39 10 222 14 407 4 185 10 339 14
343 3 4 15 2 25 -3 10 -5 45 -15 78 -22 33 -7 76 -20 95 -30 19 -10 85 -28
145 -40 131 -27 229 -24 290 8 46 24 126 103 148 147 16 32 39 147 57 285 10
83 58 346 165 905 30 154 57 310 60 347 12 125 -32 258 -113 341 -91 93 -158
111 -377 99 l-150 -9 -90 38 c-110 47 -307 89 -419 89 -113 1 -153 12 -297 84
-138 70 -240 108 -349 131 -92 19 -133 19 -195 -4z m280 -576 c177 -98 366
-155 514 -155 109 0 221 -25 321 -72 66 -31 105 -42 175 -50 50 -5 106 -7 126
-4 l36 6 -49 -258 c-27 -141 -69 -360 -94 -487 -24 -126 -44 -246 -44 -266 0
-20 -2 -38 -5 -41 -5 -5 -167 30 -239 52 -22 6 -79 29 -126 50 -120 53 -194
66 -278 51 -105 -19 -172 -65 -215 -146 -24 -46 -25 -93 -10 -305 12 -175 0
-801 -17 -896 -12 -61 -11 -82 3 -155 9 -46 21 -149 27 -229 6 -80 13 -157 16
-172 4 -21 2 -27 -8 -23 -7 2 -190 41 -407 85 -460 94 -480 95 -697 49 -144
-30 -150 -31 -328 -24 -344 14 -490 10 -611 -15 -60 -12 -118 -26 -127 -31
-22 -12 -252 -59 -287 -59 l-26 0 -2 218 c-2 213 -1 220 34 392 19 96 39 182
43 191 5 8 23 83 40 165 17 82 42 182 56 221 13 40 36 127 49 193 14 66 29
128 34 138 5 9 21 80 37 156 25 127 26 145 16 208 -19 110 -66 179 -152 224
-52 27 -172 26 -226 -3 -47 -25 -104 -85 -122 -129 -18 -42 -55 -57 -231 -94
-150 -32 -224 -52 -279 -76 -18 -8 -35 -14 -37 -14 -3 0 -5 69 -5 153 0 83 -6
193 -12 242 -7 50 -10 124 -8 165 6 110 5 172 -4 297 l-9 112 29 7 c15 4 84
20 154 35 452 100 544 129 784 244 l109 53 25 -30 c21 -25 124 -107 198 -158
12 -8 58 -43 103 -78 107 -83 252 -151 346 -162 38 -4 102 -14 141 -21 61 -11
82 -10 160 5 187 36 491 147 584 213 25 18 70 46 100 64 61 36 237 167 259
193 19 22 58 14 136 -29z"/>
</g>
</svg>
