<?xml version="1.0" standalone="no"?>
<!DOCTYPE svg PUBLIC "-//W3C//DTD SVG 20010904//EN"
 "http://www.w3.org/TR/2001/REC-SVG-20010904/DTD/svg10.dtd">
<svg version="1.0" xmlns="http://www.w3.org/2000/svg"
 width="600.000000pt" height="600.000000pt" viewBox="0 0 600.000000 600.000000"
 preserveAspectRatio="xMidYMid meet">
<metadata>
Created by potrace 1.16, written by Peter Selinger 2001-2019
</metadata>
<g transform="translate(0.000000,600.000000) scale(0.100000,-0.100000)"
fill="#000000" stroke="none">
<path d="M3633 5156 c-67 -21 -110 -54 -167 -125 -41 -51 -84 -88 -189 -159
-142 -97 -218 -132 -418 -191 l-103 -31 -89 16 c-79 15 -95 22 -157 68 -142
105 -225 170 -228 177 -13 30 -119 157 -152 181 -132 97 -285 90 -470 -23
-215 -130 -389 -189 -841 -285 -169 -35 -348 -91 -387 -121 -49 -37 -99 -111
-116 -173 -24 -87 -24 -444 2 -1055 9 -229 11 -246 46 -375 41 -150 74 -211
141 -259 69 -49 132 -64 243 -58 97 5 146 18 297 80 67 28 212 64 220 55 4 -3
-8 -50 -25 -105 -16 -54 -39 -145 -50 -202 -11 -57 -31 -142 -45 -190 -14 -47
-37 -149 -51 -226 -24 -132 -26 -163 -30 -532 -5 -430 1 -493 50 -578 48 -82
135 -135 232 -143 67 -5 129 11 224 57 34 17 87 32 140 39 47 7 166 33 265 59
l180 47 165 -3 c497 -10 555 -8 717 23 l152 29 98 -18 c200 -36 541 -107 633
-131 116 -31 341 -44 433 -25 106 23 190 115 217 239 19 90 -1 523 -33 711
-11 61 -11 96 -1 181 7 60 13 234 13 408 1 166 4 302 7 302 15 0 136 -33 219
-60 125 -40 197 -53 291 -54 68 0 89 4 137 28 67 32 138 108 155 165 7 22 24
121 37 218 31 223 39 268 75 423 16 69 31 154 35 190 4 36 31 191 61 344 59
302 66 396 39 500 -19 74 -55 135 -107 181 -82 75 -148 88 -367 74 -121 -8
-125 -7 -195 20 -161 65 -262 87 -460 101 -107 7 -131 12 -206 45 -47 21 -103
48 -125 60 -48 27 -186 78 -271 99 -74 19 -183 20 -241 2z m362 -582 c190 -90
272 -112 460 -124 145 -9 142 -8 380 -94 58 -21 88 -26 174 -26 85 0 102 -2
98 -14 -3 -8 -11 -43 -17 -78 -6 -35 -24 -128 -40 -208 -16 -80 -32 -174 -35
-210 -4 -36 -22 -132 -40 -215 -18 -82 -38 -184 -44 -225 -7 -41 -14 -89 -17
-106 l-4 -31 -128 34 c-70 19 -154 46 -187 60 -142 59 -198 75 -263 74 -176
-1 -288 -97 -294 -251 0 -19 4 -100 10 -180 9 -134 2 -642 -14 -953 -3 -56 -1
-120 6 -150 11 -53 42 -389 36 -395 -2 -2 -30 4 -62 12 -78 20 -517 110 -669
137 -138 24 -184 23 -388 -15 -158 -30 -329 -34 -534 -15 -166 16 -303 2 -563
-60 -113 -27 -225 -51 -251 -54 l-45 -4 -1 221 c-2 241 14 379 62 546 14 47
36 139 49 205 14 66 41 174 61 240 20 66 59 217 86 335 74 320 69 410 -26 505
-55 56 -102 75 -182 75 -69 0 -145 -40 -186 -97 -69 -97 -77 -101 -332 -158
-66 -15 -151 -38 -189 -51 -38 -13 -73 -24 -78 -24 -4 0 -8 60 -8 134 0 74 -5
180 -12 237 -7 57 -11 142 -9 189 6 133 5 176 -4 306 l-8 122 79 17 c262 56
554 131 663 171 118 44 294 124 315 145 18 17 36 9 78 -37 24 -26 72 -67 108
-92 36 -25 88 -65 115 -88 71 -58 168 -122 228 -150 123 -56 359 -90 480 -69
90 16 388 115 482 160 110 53 376 236 434 299 14 14 34 26 45 26 12 0 93 -34
181 -76z"/>
</g>
</svg>
